<?xml version="1.0" standalone="no"?>
<!DOCTYPE svg PUBLIC "-//W3C//DTD SVG 20010904//EN"
 "http://www.w3.org/TR/2001/REC-SVG-20010904/DTD/svg10.dtd">
<svg version="1.0" xmlns="http://www.w3.org/2000/svg"
 width="752.000000pt" height="752.000000pt" viewBox="0 0 752.000000 752.000000"
 preserveAspectRatio="xMidYMid meet">
<metadata>
Created by potrace 1.14, written by Peter Selinger 2001-2017
</metadata>
<g transform="translate(0.000000,752.000000) scale(0.100000,-0.100000)"
fill="#000000" stroke="none">
<path d="M3717 6454 c-1 -1 -54 -4 -117 -8 -63 -3 -126 -8 -140 -10 -14 -2
-47 -7 -73 -11 -27 -4 -57 -8 -67 -10 -9 -2 -33 -6 -51 -9 -85 -13 -343 -87
-421 -120 -21 -9 -38 -13 -38 -9 0 5 -4 3 -8 -2 -4 -6 -34 -21 -67 -34 -115
-46 -287 -140 -429 -233 -33 -22 -181 -131 -192 -142 -6 -6 -29 -24 -50 -41
-50 -38 -286 -274 -344 -345 -311 -373 -531 -871 -599 -1356 -22 -152 -26
-216 -26 -404 0 -266 8 -347 56 -585 56 -278 204 -644 354 -876 25 -38 45 -74
45 -79 0 -6 4 -10 8 -10 4 0 16 -14 26 -31 17 -29 109 -152 131 -175 5 -6 30
-35 55 -64 178 -210 437 -423 685 -567 101 -59 225 -123 225 -116 0 3 6 1 13
-5 6 -6 44 -22 82 -37 39 -15 84 -33 100 -40 35 -15 79 -29 225 -68 84 -23
239 -55 300 -62 30 -3 62 -8 70 -10 19 -6 256 -18 335 -17 69 0 241 10 270 16
11 2 47 7 80 11 91 10 102 12 215 38 118 28 262 70 330 97 41 16 77 30 90 35
102 36 460 231 468 254 2 6 8 11 14 11 12 0 142 93 173 124 12 12 44 39 71 61
60 49 221 210 289 289 28 32 56 64 63 72 6 7 12 17 12 23 0 6 4 11 9 11 11 0
143 190 208 300 174 293 314 701 349 1020 3 25 9 72 14 105 12 87 9 443 -5
560 -22 176 -47 325 -60 345 -3 4 -7 25 -11 46 -16 105 -172 517 -224 594 -10
14 -21 35 -25 48 -4 13 -16 38 -27 55 -46 74 -182 282 -187 287 -4 3 -22 25
-41 50 -256 330 -633 626 -1010 790 -41 18 -90 39 -109 47 -132 58 -450 144
-586 159 -22 2 -56 6 -75 9 -66 10 -375 25 -383 19z m323 -238 c14 -3 45 -7
70 -10 54 -7 137 -21 205 -36 28 -6 64 -13 80 -16 46 -9 261 -83 350 -121 119
-51 277 -137 388 -212 54 -36 106 -70 115 -76 9 -5 19 -12 22 -15 3 -3 27 -24
55 -45 83 -67 278 -265 354 -360 40 -49 78 -97 85 -105 36 -45 153 -244 205
-347 104 -208 198 -475 226 -648 2 -11 10 -56 18 -100 41 -223 42 -643 2 -845
-3 -14 -8 -36 -10 -50 -3 -14 -8 -41 -11 -60 -3 -19 -21 -87 -40 -150 -19 -63
-36 -123 -38 -132 -8 -29 -85 -217 -122 -295 -49 -103 -181 -325 -204 -343 -3
-3 -16 -22 -29 -42 -12 -21 -26 -38 -30 -38 -4 0 -14 -13 -23 -28 -47 -79
-283 -316 -410 -412 -11 -8 -28 -22 -37 -30 -25 -22 -160 -114 -206 -140 -111
-64 -186 -104 -245 -131 -36 -17 -77 -37 -92 -45 -15 -8 -31 -15 -35 -16 -11
-1 -31 -7 -88 -28 -48 -18 -89 -31 -110 -36 -5 -1 -38 -10 -72 -19 -35 -9 -71
-18 -80 -20 -10 -2 -29 -6 -43 -9 -39 -9 -81 -16 -130 -22 -25 -3 -51 -7 -59
-10 -72 -24 -511 -23 -651 1 -14 2 -38 6 -55 9 -16 2 -48 7 -70 11 -22 3 -58
11 -80 17 -22 5 -47 11 -55 13 -32 6 -107 27 -165 47 -33 10 -67 21 -75 23
-27 6 -204 83 -261 113 -99 52 -194 106 -199 112 -3 4 -12 9 -20 13 -16 8 -45
25 -69 44 -9 7 -45 33 -81 60 -36 26 -70 52 -76 58 -6 5 -40 35 -74 65 -116
101 -203 194 -345 372 -33 41 -156 230 -196 303 -115 205 -221 495 -265 720
-4 22 -8 42 -9 45 -6 21 -21 140 -32 240 -10 94 -10 364 0 450 4 36 10 90 13
120 3 30 7 57 9 61 2 3 7 28 10 55 3 27 10 63 15 79 5 17 11 41 14 55 11 54
16 74 47 173 76 248 200 502 336 692 24 33 51 71 60 85 10 13 26 32 36 42 9
10 17 20 17 22 0 8 75 89 175 190 96 96 129 126 199 178 16 13 37 30 46 38 9
8 36 28 60 45 25 16 47 33 50 36 3 3 10 8 15 10 6 2 41 24 80 49 38 25 72 45
75 45 3 0 25 12 50 27 149 88 464 203 640 234 14 3 32 7 40 9 8 3 40 7 70 11
30 3 57 7 60 9 3 2 44 7 90 10 47 4 87 9 89 11 6 5 393 -3 421 -10z"/>
<path d="M4150 5929 c14 -6 33 -12 42 -14 36 -7 256 -84 303 -106 28 -13 52
-24 55 -24 3 0 20 -9 38 -19 18 -9 68 -35 110 -57 68 -37 247 -154 277 -182 7
-7 25 -21 41 -32 15 -11 32 -24 38 -30 6 -5 31 -26 56 -46 50 -40 189 -177
234 -230 15 -19 42 -50 60 -69 79 -90 253 -344 248 -362 -1 -5 2 -8 8 -8 5 0
10 -4 10 -9 0 -5 15 -36 33 -68 33 -57 147 -315 151 -340 1 -7 5 -16 9 -19 4
-4 7 -16 7 -27 0 -10 6 -33 14 -50 8 -18 17 -39 20 -47 7 -19 0 56 -8 90 -4
14 -9 41 -12 60 -3 19 -11 44 -17 55 -6 11 -9 20 -8 20 3 0 -9 55 -16 75 -3 8
-7 20 -9 25 -5 24 -75 205 -101 265 -80 185 -212 395 -338 539 -69 78 -192
195 -245 231 -12 8 -32 23 -43 33 -12 10 -34 26 -49 35 -16 9 -28 20 -28 24 0
4 -4 8 -9 8 -5 0 -38 17 -72 38 -178 108 -410 193 -649 237 -14 3 -59 7 -100
10 -60 4 -70 3 -50 -6z"/>
<path d="M3420 5873 c-70 -26 -319 -168 -373 -213 -19 -16 -55 -45 -99 -82
-86 -69 -234 -227 -287 -307 -14 -20 -28 -37 -33 -39 -4 -2 -8 -8 -8 -12 0 -5
-14 -29 -30 -54 -63 -93 -161 -313 -185 -416 -38 -164 -45 -207 -49 -340 -4
-97 -7 -112 -45 -196 -23 -51 -41 -98 -41 -106 0 -8 -5 -19 -12 -26 -7 -7 -9
-12 -6 -12 4 0 2 -15 -3 -32 -17 -60 -47 -202 -53 -253 -8 -67 -8 -339 0 -395
35 -269 123 -494 283 -730 44 -66 291 -318 334 -342 13 -7 58 -36 99 -64 194
-130 427 -216 683 -250 115 -15 392 -9 447 11 7 2 24 6 38 9 131 22 355 100
453 156 38 22 71 40 74 40 11 0 200 137 221 160 l23 25 -23 -38 c-13 -21 -28
-46 -33 -56 -34 -59 -182 -239 -270 -326 -191 -191 -419 -339 -652 -425 -35
-12 -63 -24 -63 -26 0 -14 146 17 270 58 146 47 426 188 438 220 2 4 9 8 15 8
14 0 148 109 222 179 269 256 462 584 534 906 18 78 38 238 35 276 -4 49 12
15 21 -46 4 -27 9 -98 10 -157 7 -365 -129 -692 -407 -979 -27 -28 -48 -53
-46 -55 4 -3 91 53 131 84 32 27 229 223 260 261 15 18 27 37 27 41 0 5 3 10
8 12 14 6 107 152 149 233 102 198 146 371 147 580 1 169 -22 293 -80 435 -31
77 -103 214 -115 218 -5 2 -9 9 -9 15 0 6 -7 18 -15 27 -8 9 -20 41 -26 71
-13 66 -17 84 -19 84 -1 0 -3 8 -5 17 -18 93 -104 288 -183 416 -161 260 -361
441 -641 582 -136 68 -210 93 -394 129 -210 42 -457 53 -597 26 -14 -2 -39 -7
-56 -10 -17 -2 -69 -16 -115 -30 -46 -14 -91 -27 -99 -29 -25 -6 -235 -99
-240 -106 -3 -4 -27 -19 -54 -34 -44 -24 -138 -95 -248 -187 -21 -17 -38 -27
-38 -21 0 37 102 340 133 397 6 11 12 22 12 25 8 47 232 380 256 380 5 0 9 5
9 10 0 11 59 71 128 132 62 54 89 74 172 128 65 44 74 63 20 43z"/>
<path d="M2583 5432 c-158 -115 -338 -287 -457 -437 -26 -33 -58 -73 -72 -90
-93 -113 -230 -354 -301 -530 -120 -296 -155 -592 -108 -903 23 -156 121 -400
228 -571 81 -130 194 -277 204 -267 3 2 -18 42 -46 89 -139 230 -203 437 -227
737 -10 119 -5 313 10 396 6 31 20 118 21 129 9 70 70 294 110 400 14 39 27
75 29 80 1 6 12 32 24 59 12 27 22 50 22 53 0 15 154 309 175 333 7 8 20 30
30 49 9 19 26 43 36 54 10 12 19 24 19 27 0 6 50 73 123 165 18 21 72 80 120
130 127 131 131 135 121 135 -5 0 -32 -17 -61 -38z"/>
<path d="M5330 4525 c14 -15 52 -56 85 -90 33 -34 71 -77 85 -95 14 -18 31
-38 38 -45 6 -8 12 -18 12 -23 0 -6 4 -12 8 -14 14 -5 103 -158 147 -253 86
-185 138 -375 150 -555 6 -90 16 -172 20 -168 17 16 24 260 12 383 -11 113
-74 346 -98 360 -5 4 -9 12 -9 20 0 12 -76 153 -89 165 -3 3 -24 28 -46 55
-45 58 -124 136 -175 174 -19 14 -37 28 -40 32 -6 6 -88 62 -110 74 -8 4 -4
-4 10 -20z"/>
<path d="M1705 2951 c4 -13 8 -29 10 -35 6 -31 70 -175 123 -276 49 -95 175
-289 219 -338 15 -17 44 -50 63 -72 47 -56 149 -160 157 -160 3 0 16 -10 28
-22 48 -51 223 -178 242 -178 7 0 13 -3 13 -7 0 -5 10 -13 23 -18 12 -6 40
-20 62 -32 201 -106 426 -158 685 -157 153 1 242 18 151 29 -138 18 -200 27
-226 35 -16 5 -43 11 -60 14 -93 15 -283 85 -426 156 -277 138 -574 384 -775
639 -11 13 -27 32 -36 43 -10 10 -18 22 -18 27 0 5 -4 11 -8 13 -10 4 -162
233 -162 245 0 4 -16 33 -36 63 -19 30 -32 44 -29 31z"/>
</g>
</svg>
