<svg xmlns="http://www.w3.org/2000/svg" fill="white" preserveAspectRatio="none" data-bbox="215.2 448.5 569.13 102.98" viewBox="215.2 448.5 569.13 102.98" data-type="shape" role="presentation" aria-hidden="true" style="&#10;    fill: white;&#10;">
    <g>
        <path d="m390.67 499.99-5.23 46.31h2.15l4.2-37.14 4.2 37.14h2.15l-5.23-46.31h-2.24z"/>
        <path d="M344.45 546.3h2.16v-44.62h3.67v44.62h2.16v-46.31h-7.99v46.31z"/>
        <path d="M480.82 522.72h-3.68v-22.73h-2.15v46.31h2.15v-21.9h3.68v21.9h2.16v-46.31h-2.16v22.73z"/>
        <path d="M645.38 499.99h-7.12v46.31h2.16v-22.05h3.35c1.37 0 2.48-.87 2.48-1.94v-21.65c-.01-.37-.4-.67-.87-.67zm-1.3 21.9c0 .37-.39.67-.86.67h-2.81v-20.89h3.68v20.22z"/>
        <path d="M681.62 531.13v-31.14h-2.16v46.31h2.16l4.42-31.13v31.13h2.16v-46.31h-2.16l-4.42 31.14z"/>
        <path d="M555.7 501.68h2.91v44.62h2.16v-44.62h2.92v-1.69h-7.99v1.69z"/>
        <path d="M729.94 494.94v1.68h-8.74v-1.68h8.74z"/>
        <path d="m727.78 499.99-4.43 31.14v-31.14h-2.15v46.31h2.15l4.43-31.13v31.13h2.15v-46.31h-2.15z"/>
        <path d="M515.98 546.3h7.99v-1.68h-5.84V524.4h5.84v-1.68h-5.84v-21.04h5.84v-1.69h-7.99v46.31z"/>
        <path d="m435.44 499.99-5.23 46.31h2.16l1.7-15.07h4.99l1.7 15.07h2.16l-5.23-46.31h-2.25zm-1.18 29.56 2.3-20.39 2.3 20.39h-4.6z"/>
        <path d="m598.93 499.99-5.23 46.31h2.16l1.7-15.07h4.99l1.7 15.07h2.16l-5.23-46.31h-2.25zm-1.19 29.56 2.3-20.39 2.3 20.39h-4.6z"/>
        <path d="m782.2 499.84-2.85 3.02v2.67l2.85-2.97v43.74h2.13v-46.46h-2.13z"/>
        <path d="M311.61 495.4c-2.15-21.3-19.11-38.23-40.42-40.34a211.556 211.556 0 0 0 40.42 40.34z"/>
        <path d="M266.69 551.48c-6.95 0-13.7-1.36-20.04-4.05a51.436 51.436 0 0 1-16.37-11.03 51.272 51.272 0 0 1-11.03-16.37c-2.69-6.35-4.05-13.09-4.05-20.04 0-6.94 1.36-13.67 4.04-20.02a51.293 51.293 0 0 1 11.01-16.35 51.295 51.295 0 0 1 16.33-11.04c6.33-2.69 13.06-4.06 20-4.08h.68l.4.56a211.075 211.075 0 0 0 49.97 49.87l.56.39v.68c0 6.95-1.37 13.69-4.05 20.04a51.312 51.312 0 0 1-11.04 16.36 51.272 51.272 0 0 1-16.37 11.03c-6.34 2.69-13.09 4.05-20.04 4.05zm-.17-101.54c-6.73.02-13.25 1.36-19.39 3.96a49.912 49.912 0 0 0-15.87 10.73c-4.59 4.6-8.19 9.94-10.7 15.9a49.818 49.818 0 0 0-3.92 19.46c0 6.76 1.32 13.31 3.94 19.48a49.866 49.866 0 0 0 10.73 15.91c4.6 4.6 9.95 8.21 15.91 10.73 6.17 2.61 12.72 3.93 19.48 3.93s13.31-1.32 19.48-3.93a50 50 0 0 0 15.91-10.72c4.6-4.59 8.21-9.95 10.73-15.91 2.6-6.15 3.93-12.68 3.94-19.42-19.49-13.81-36.38-30.68-50.24-50.12z"/>
    </g>
</svg>